<?xml version="1.0" encoding="UTF-8"?>
<svg version="1.1" xmlns="http://www.w3.org/2000/svg" width="500" height="500">
<path d="M0 0 C165 0 330 0 500 0 C500 165 500 330 500 500 C335 500 170 500 0 500 C0 335 0 170 0 0 Z " fill="#FFFFFF" transform="translate(0,0)"/>
<path d="M0 0 C165 0 330 0 500 0 C500 165 500 330 500 500 C335 500 170 500 0 500 C0 335 0 170 0 0 Z M41 37 C41 177.58 41 318.16 41 463 C109.97 463 178.94 463 250 463 C250 392.71 250 322.42 250 250 C318.97 250 387.94 250 459 250 C459 179.71 459 109.42 459 37 C321.06 37 183.12 37 41 37 Z " fill="#000000" transform="translate(0,0)"/>
<path d="M0 0 C56.76 0 113.52 0 172 0 C172 58.08 172 116.16 172 176 C115.24 176 58.48 176 0 176 C0 117.92 0 59.84 0 0 Z " fill="#5CE1E6" transform="translate(287,287)"/>
<path d="M0 0 C1.32 0 2.64 0 4 0 C4 165 4 330 4 500 C2.68 500 1.36 500 0 500 C0 335 0 170 0 0 Z " fill="#F0F0F0" transform="translate(496,0)"/>
<path d="M0 0 C1.32 0 2.64 0 4 0 C4 165 4 330 4 500 C2.68 500 1.36 500 0 500 C0 335 0 170 0 0 Z " fill="#F6F6F6" transform="translate(0,0)"/>
</svg>
